:SAMPLES-PER-SECOND 30
:FULLY-SPECIFIED
:DEGREES
636
root  -29.9756 32.4662 15.0543 136.659 1.89627 92.2038
Spine  -5.42023 -6.80015 -20.3611
Spine1  -2.78803 24.7435 8.4568
Neck  3.97569e-016 0 -2.38542e-015
Head  -27.1764 -3.76528 29.7729
R_Clavicle  0.430306 -25.0333 1.86867
R_UpperArm  45.2791 -5.04397 45.4987
R_Forearm  9.49982 -45.3345 35.6384
R_Hand  -2.08899 11.1406 -26.2284
L_Clavicle  -0.617443 24.7355 1.18421
L_UpperArm  2.55845 4.21602 12.9409
L_Forearm  -0.39275 32.6953 36.3964
L_Hand  0.00396793 2.75571 0.19975
L_Thigh  3.78888 5.85053 -9.17996
L_Calf  -1.70042 -1.00565 6.97296
L_Foot  3.14952 8.29723 4.02388
L_Toe0  -6.57782 0.540337 -1.97032
R_Thigh  4.09916 1.50485 -14.56
R_Calf  1.16008 7.40749 23.8776
R_Foot  -1.04559 -0.716485 6.77312
R_Toe0  2.13804 -0.363683 -15.1243
637
root  -29.7055 32.4948 15.6496 136.675 1.71091 92.0414
Spine  -4.94611 -4.98372 -20.3138
Spine1  -2.36124 22.7656 8.62246
Neck  3.97569e-016 0 -2.38542e-015
Head  -28.7044 -3.63583 29.6011
R_Clavicle  0.434227 -24.7264 1.67084
R_UpperArm  43.9679 -3.52323 43.0567
R_Forearm  7.20608 -45.9259 34.9875
R_Hand  -2.34413 11.2783 -27.7986
L_Clavicle  -0.639271 24.5854 0.876092
L_UpperArm  -0.237884 5.02115 13.4649
L_Forearm  -0.331692 33.5691 36.7363
L_Hand  -0.0121181 2.93468 -0.0507469
L_Thigh  3.32917 3.57345 -6.02114
L_Calf  -0.791693 -0.70827 4.77899
L_Foot  3.05052 7.7132 4.25653
L_Toe0  -4.24273 0.293601 -2.78588
R_Thigh  4.26923 1.8747 -15.422
R_Calf  1.21443 7.40917 23.9014
R_Foot  -1.16689 -1.0526 6.79301
R_Toe0  2.76314 -0.420848 -14.4273
638
root  -29.4252 32.5293 16.2085 136.957 1.46765 91.8614
Spine  -4.52144 -3.70128 -20.0894
Spine1  -2.03383 21.2684 8.70687
Neck  3.97569e-016 0 -2.38542e-015
Head  -30.0104 -3.22626 29.4086
R_Clavicle  0.435586 -24.2989 1.4995
R_UpperArm  42.3008 -1.25407 40.7376
R_Forearm  5.41451 -46.2508 33.6591
R_Hand  -2.4331 11.2334 -28.3804
L_Clavicle  -0.659767 24.4509 0.577807
L_UpperArm  -2.32991 5.72415 14.1382
L_Forearm  0.319906 34.2289 37.03
L_Hand  -0.0164978 2.83397 -0.161488
L_Thigh  2.07866 1.32825 -2.54282
L_Calf  -2.60523 -0.599274 3.97483
L_Foot  2.96895 7.22464 4.46068
L_Toe0  -1.84059 0.0868415 -4.8605
R_Thigh  4.91043 2.0268 -16.2905
R_Calf  0.765867 7.45386 24.0621
R_Foot  -1.16618 -1.15682 6.5044
R_Toe0  2.59819 -0.474399 -12.7878
639
root  -29.1383 32.5887 16.7433 137.098 1.14575 91.7214
Spine  -3.95965 -2.83243 -19.5287
Spine1  -1.67801 20.0061 8.5346
Neck  3.97569e-016 0 -2.38542e-015
Head  -31.3367 -2.49232 28.9275
R_Clavicle  0.434147 -23.6944 1.33857
R_UpperArm  40.8052 1.36059 38.6704
R_Forearm  4.90271 -45.9986 31.8189
R_Hand  -2.42744 11.1589 -28.3748
L_Clavicle  -0.676249 24.2106 0.28304
L_UpperArm  -3.73921 6.31888 14.7912
L_Forearm  1.65148 34.8859 37.2885
L_Hand  -0.00412222 2.30677 -0.00905969
L_Thigh  0.211049 -0.798143 0.787024
L_Calf  -4.65293 -0.766632 5.20094
L_Foot  2.62239 6.40281 4.02292
L_Toe0  0.725384 0.0283617 -6.26088
R_Thigh  5.20278 2.12163 -17.188
R_Calf  0.513352 7.58286 24.4976
R_Foot  -1.11434 -1.21764 5.94583
R_Toe0  2.46321 -0.518412 -11.159
640
root  -28.8312 32.6612 17.2821 136.867 0.92981 91.5516
Spine  -3.25873 -2.03132 -18.7415
Spine1  -1.22018 18.7561 8.23478
Neck  3.97569e-016 0 -2.38542e-015
Head  -32.6934 -1.74427 28.1618
R_Clavicle  0.426829 -22.6994 1.22683
R_UpperArm  39.6817 3.87158 36.6571
R_Forearm  5.52718 -45.2377 29.8502
R_Hand  -2.46313 11.2821 -28.5509
L_Clavicle  -0.685988 23.7445 -0.0333025
L_UpperArm  -5.36554 6.97446 15.4223
L_Forearm  3.71544 35.8732 37.6679
L_Hand  0.00704225 1.91959 0.212488
L_Thigh  -2.08986 -2.55183 3.49305
L_Calf  -5.37738 -1.21675 8.51425
L_Foot  2.38496 6.53484 2.99297
L_Toe0  0.505156 0.0344468 -6.1361
R_Thigh  4.92439 2.39623 -18.1711
R_Calf  0.63596 7.76078 25.1008
R_Foot  -1.09188 -1.4351 5.20874
R_Toe0  2.58232 -0.578867 -9.72936
641
root  -28.4844 32.7247 17.8165 136.333 0.707977 91.427
Spine  -2.50543 -1.41759 -17.8503
Spine1  -0.734274 17.4575 7.82097
Neck  3.97569e-016 0 -2.38542e-015
Head  -34.037 -1.15051 27.3581
R_Clavicle  0.415247 -21.3613 1.2258
R_UpperArm  38.85 6.05814 34.6761
R_Forearm  6.76987 -44.0745 27.8658
R_Hand  -2.50124 11.5444 -28.6801
L_Clavicle  -0.692314 23.322 -0.318976
L_UpperArm  -7.44367 7.53054 16.1705
L_Forearm  6.47755 37.3491 38.2928
L_Hand  0.00971223 1.88662 0.270541
L_Thigh  -4.44657 -4.21253 5.53206
L_Calf  -4.56098 -1.87726 13.439
L_Foot  2.50316 7.98762 1.99725
L_Toe0  0.505156 0.0344652 -6.1361
R_Thigh  4.5728 2.53048 -19.1752
R_Calf  0.537265 7.93293 25.6814
R_Foot  -1.02672 -1.56975 4.37415
R_Toe0  2.60273 -0.631027 -8.08308
642
root  -28.0886 32.7735 18.3242 135.428 0.188782 91.448
Spine  -1.69479 -1.06713 -16.9728
Spine1  -0.246308 15.7535 7.26617
Neck  3.97569e-016 0 -2.38542e-015
Head  -35.2164 -0.576915 26.6323
R_Clavicle  0.403989 -19.9383 1.27354
R_UpperArm  38.0371 7.74964 32.9795
R_Forearm  8.55321 -42.3089 25.7488
R_Hand  -2.47775 11.8098 -28.4278
L_Clavicle  -0.701843 23.1171 -0.565945
L_UpperArm  -9.93306 7.75016 17.095
L_Forearm  9.91298 39.3134 39.3037
L_Hand  0.0129476 1.85134 0.287661
L_Thigh  -7.04748 -5.91509 7.07475
L_Calf  -1.89783 -2.70456 19.7862
L_Foot  2.0692 7.56863 0.76445
L_Toe0  0.505156 0.0345056 -6.1361
R_Thigh  4.23811 2.13038 -19.9895
R_Calf  -0.0348346 8.0738 26.1409
R_Foot  -0.88829 -1.44202 3.64086
R_Toe0  2.34211 -0.629294 -6.33918
643
root  -27.6333 32.7662 18.8563 133.911 -0.382324 91.456
Spine  -0.78806 -0.499055 -16.2886
Spine1  0.323003 13.3106 6.69964
Neck  3.97569e-016 0 -2.38542e-015
Head  -35.7725 -0.00692145 26.0564
R_Clavicle  0.392008 -18.5647 1.25166
R_UpperArm  35.9284 8.85326 31.7441
R_Forearm  12.0753 -39.7438 23.6262
R_Hand  -2.48021 12.0402 -28.3538
L_Clavicle  -0.708025 22.7851 -0.850865
L_UpperArm  -13.0879 7.97868 18.171
L_Forearm  14.0849 41.4815 40.9029
L_Hand  0.0268705 1.62037 0.505764
L_Thigh  -11.0471 -6.93399 8.13014
L_Calf  2.78136 -3.51914 26.6255
L_Foot  0.57203 3.95375 -1.74008
L_Toe0  0.505156 0.0345651 -6.1361
R_Thigh  3.42972 1.59854 -20.6031
R_Calf  -0.745893 8.07339 26.1075
R_Foot  -0.795891 -1.22793 3.46031
R_Toe0  2.10714 -0.600162 -5.34282
644
root  -27.0925 32.6585 19.4988 132.074 -0.457458 91.4334
Spine  0.060369 0.1311 -15.7562
Spine1  0.893832 10.865 6.19706
Neck  3.97569e-016 0 -2.38542e-015
Head  -35.2459 0.428463 25.8416
R_Clavicle  0.378543 -17.2907 1.1853
R_UpperArm  31.6842 9.66949 30.8551
R_Forearm  17.5738 -36.8321 21.9735
R_Hand  -2.5644 12.0939 -28.8402
L_Clavicle  -0.703198 22.2229 -1.14335
L_UpperArm  -16.6346 8.67312 19.473
L_Forearm  18.6063 43.4009 43.1753
L_Hand  0.0435333 1.32014 0.789586
L_Thigh  -15.0103 -7.09294 8.81043
L_Calf  6.847 -4.47542 30.6048
L_Foot  -0.259012 3.57529 -4.86053
L_Toe0  0.505156 0.0346407 -6.1361
R_Thigh  2.34653 1.3763 -21.3903
R_Calf  -1.69888 7.78251 25.0661
R_Foot  -0.670088 -0.759977 3.66263
R_Toe0  1.75372 -0.529221 -4.5798
645
root  -26.4552 32.454 20.2332 130.81 -0.112305 91.9544
Spine  0.554974 -0.576048 -15.0222
Spine1  1.20113 9.72807 5.7592
Neck  3.97569e-016 0 -2.38542e-015
Head  -33.8765 0.896403 25.9484
R_Clavicle  0.369995 -16.2743 1.19448
R_UpperArm  26.9132 10.5026 30.044
R_Forearm  22.9871 -34.3443 21.0738
R_Hand  -2.60525 11.8097 -29.2107
L_Clavicle  -0.708233 22.1292 -1.29811
L_UpperArm  -19.4196 9.27507 20.9535
L_Forearm  22.5462 44.9777 46.0573
L_Hand  0.0523108 0.989503 0.9628
L_Thigh  -13.8359 -7.7472 8.43488
L_Calf  5.72043 -5.86381 30.7624
L_Foot  0.277355 9.33676 -7.16616
L_Toe0  0.505156 0.0347294 -6.13609
R_Thigh  2.17418 0.775123 -22.2502
R_Calf  -3.58777 6.91379 22.0543
R_Foot  -0.168616 0.785874 3.65695
R_Toe0  0.483224 -0.212629 -3.21649
646
root  -25.7423 32.1864 20.9782 130.412 0.18576 93.4353
Spine  0.669103 -2.96603 -13.8773
Spine1  1.22019 9.69488 5.504
Neck  3.97569e-016 0 -2.38542e-015
Head  -32.6178 1.77443 25.9489
R_Clavicle  0.369392 -15.7209 1.26296
R_UpperArm  24.8566 10.9031 29.2161
R_Forearm  26.1242 -32.6453 20.8638
R_Hand  -2.54075 11.424 -28.9782
L_Clavicle  -0.743191 22.9164 -1.32106
L_UpperArm  -20.6533 8.6378 22.0871
L_Forearm  25.5849 46.4616 49.4931
L_Hand  0.0773662 0.570352 1.46071
L_Thigh  -13.0158 -9.87421 6.89716
L_Calf  3.4738 -4.29483 28.7515
L_Foot  1.57507 16.1632 -7.03739
L_Toe0  0.505156 0.0348283 -6.13609
R_Thigh  3.35987 -1.02798 -22.3124
R_Calf  -6.5423 5.13084 16.117
R_Foot  0.689316 3.11462 2.4294
R_Toe0  -1.25081 0.326315 -1.18163
647
root  -25.0152 31.9275 21.6996 130.072 0.286621 95.383
Spine  0.765321 -5.21583 -12.6196
Spine1  1.26206 8.86708 5.50934
Neck  3.97569e-016 0 -2.38542e-015
Head  -32.1053 2.97019 25.7863
R_Clavicle  0.368655 -15.7207 1.25027
R_UpperArm  26.8337 10.0837 28.5829
R_Forearm  27.2379 -31.6645 21.0923
R_Hand  -2.51156 11.4431 -28.788
L_Clavicle  -0.7863 23.7646 -1.41483
L_UpperArm  -21.1505 6.76881 22.2933
L_Forearm  28.8381 47.8607 53.0647
L_Hand  0.139967 0.146206 2.78649
L_Thigh  -10.8033 -12.2332 5.68597
L_Calf  -1.00314 -3.16053 24.257
L_Foot  3.65999 20.1509 -3.2278
L_Toe0  0.505156 0.0349344 -6.13609
R_Thigh  4.58056 -3.67148 -20.9157
R_Calf  -9.72466 2.57233 7.96675
R_Foot  1.37289 4.15608 -2.06752
R_Toe0  -1.81209 0.631775 0.994631
648
root  -24.3429 31.784 22.3866 129.15 0.411469 96.9902
Spine  1.12278 -5.86289 -11.7175
Spine1  1.45158 6.41623 5.50399
Neck  3.97569e-016 0 -2.38542e-015
Head  -31.9312 3.82126 26.1665
R_Clavicle  0.367666 -16.2465 1.1547
R_UpperArm  30.1887 8.18389 28.3454
R_Forearm  28.0002 -31.2666 21.4181
R_Hand  -2.6131 11.8724 -29.2317
L_Clavicle  -0.79897 23.7744 -1.58316
L_UpperArm  -21.763 5.00423 21.752
L_Forearm  32.3746 48.6483 55.5196
L_Hand  0.207992 -0.147068 4.34247
L_Thigh  -10.3108 -13.2053 4.25723
L_Calf  -2.69444 -2.77721 20.8693
L_Foot  4.70503 18.5324 0.600979
L_Toe0  0.505156 0.0350446 -6.13609
R_Thigh  4.59866 -6.04081 -18.3492
R_Calf  -12.3702 0.00343996 -0.0160725
R_Foot  1.83357 3.52043 -10.1193
R_Toe0  -1.82845 0.581857 0.363621
649
root  -23.7362 31.7788 23.0393 128.187 0.743134 97.805
Spine  1.54385 -5.47653 -11.3771
Spine1  1.58789 4.02617 5.15974
Neck  3.97569e-016 0 -2.38542e-015
Head  -31.3567 3.88127 27.5739
R_Clavicle  0.374534 -17.2137 1.1121
R_UpperArm  31.6806 6.28538 28.6105
R_Forearm  27.9962 -31.5014 21.569
R_Hand  -2.69753 12.0785 -29.6507
L_Clavicle  -0.775485 23.3772 -1.50513
L_UpperArm  -22.1644 4.21838 21.1575
L_Forearm  33.6395 48.4423 55.5331
L_Hand  0.221854 -0.363818 4.81144
L_Thigh  -11.1556 -13.0063 2.51303
L_Calf  -1.93601 -2.5633 19.3013
L_Foot  5.04887 16.4782 3.00481
L_Toe0  0.505156 0.0351562 -6.13609
R_Thigh  4.15938 -7.45891 -15.5418
R_Calf  -13.7059 -1.92548 -6.01258
R_Foot  2.39516 3.54709 -17.4105
R_Toe0  -1.76746 0.266605 -5.6284
650
root  -23.1652 31.8966 23.6933 127.952 1.20813 97.8962
Spine  1.7081 -5.32292 -11.5922
Spine1  1.56936 3.52508 4.6326
Neck  3.97569e-016 0 -2.38542e-015
Head  -30.3173 3.4374 29.3959
R_Clavicle  0.387091 -18.387 1.15241
R_UpperArm  30.5842 5.00153 29.3989
R_Forearm  25.8429 -31.9853 21.4789
R_Hand  -2.59634 11.7014 -29.2059
L_Clavicle  -0.752604 23.5372 -1.07384
L_UpperArm  -22.1052 4.01597 20.8175
L_Forearm  30.6834 47.4326 53.1943
L_Hand  0.170566 -0.496646 3.77191
L_Thigh  -10.9502 -12.6758 0.426868
L_Calf  -1.9185 -2.53119 19.1236
L_Foot  5.65452 16.6771 4.58547
L_Toe0  0.505156 0.0352659 -6.13609
R_Thigh  4.50458 -8.14514 -13.1723
R_Calf  -12.5565 -3.09587 -9.68864
R_Foot  2.68902 4.52207 -19.7025
R_Toe0  -1.07517 -0.275484 -16.0097
